mtllib model_3.mtl
o model_3
v -0.02562429942190647 -0.36725229024887085 0.40646710991859436 
v -0.021585259586572647 -0.3579624891281128 0.40646710991859436 
v -0.02562429942190647 -0.36725229024887085 0.3959258198738098 
v -0.021585259586572647 -0.3579624891281128 0.3959258198738098 
v -0.014314987696707249 -0.3506922423839569 0.40646710991859436 
v -0.014314987696707249 -0.3506922423839569 0.3959258198738098 
v -0.005025195889174938 -0.34665319323539734 0.40646710991859436 
v -0.005025195889174938 -0.34665319323539734 0.3959258198738098 
v 0.0050724041648209095 -0.34665319323539734 0.40646710991859436 
v 0.0050724041648209095 -0.34665319323539734 0.3959258198738098 
v 0.014362196438014507 -0.3506922423839569 0.40646710991859436 
v 0.014362196438014507 -0.3506922423839569 0.3959258198738098 
v 0.021632468327879906 -0.3579624891281128 0.40646710991859436 
v 0.021632468327879906 -0.3579624891281128 0.3959258198738098 
v 0.02567150816321373 -0.36725229024887085 0.40646710991859436 
v 0.02567150816321373 -0.36725229024887085 0.3959258198738098 
v 0.02567150816321373 -0.3773498833179474 0.40646710991859436 
v 0.02567150816321373 -0.3773498833179474 0.3959258198738098 
v 0.021632468327879906 -0.38663968443870544 0.40646710991859436 
v 0.021632468327879906 -0.38663968443870544 0.3959258198738098 
v 0.014362196438014507 -0.3939099609851837 0.40646710991859436 
v 0.014362196438014507 -0.3939099609851837 0.3959258198738098 
v 0.0050724041648209095 -0.3979490101337433 0.40646710991859436 
v 0.0050724041648209095 -0.3979490101337433 0.3959258198738098 
v -0.005025195889174938 -0.3979490101337433 0.40646710991859436 
v -0.005025195889174938 -0.3979490101337433 0.3959258198738098 
v -0.014314987696707249 -0.3939099609851837 0.40646710991859436 
v -0.014314987696707249 -0.3939099609851837 0.3959258198738098 
v -0.021585259586572647 -0.38663968443870544 0.40646710991859436 
v -0.021585259586572647 -0.38663968443870544 0.3959258198738098 
v -0.02562429942190647 -0.3773498833179474 0.40646710991859436 
v -0.02562429942190647 -0.3773498833179474 0.3959258198738098 
v -0.02562429942190647 -0.36725229024887085 0.40646710991859436 
v -0.02562429942190647 -0.36725229024887085 0.3959258198738098 
v 0.02567150816321373 -0.3773498833179474 0.3959258198738098 
v 0.021632468327879906 -0.38663968443870544 0.3959258198738098 
v 0.00022555599571205676 -0.3720991313457489 0.3947890102863312 
v 0.014362196438014507 -0.3939099609851837 0.3959258198738098 
v 0.0050724041648209095 -0.3979490101337433 0.3959258198738098 
v -0.005025195889174938 -0.3979490101337433 0.3959258198738098 
v -0.014314987696707249 -0.3939099609851837 0.3959258198738098 
v -0.021585259586572647 -0.38663968443870544 0.3959258198738098 
v -0.02562429942190647 -0.3773498833179474 0.3959258198738098 
v -0.02562429942190647 -0.36725229024887085 0.3959258198738098 
v -0.021585259586572647 -0.3579624891281128 0.3959258198738098 
v -0.014314987696707249 -0.3506922423839569 0.3959258198738098 
v -0.005025195889174938 -0.34665319323539734 0.3959258198738098 
v 0.0050724041648209095 -0.34665319323539734 0.3959258198738098 
v 0.014362196438014507 -0.3506922423839569 0.3959258198738098 
v 0.021632468327879906 -0.3579624891281128 0.3959258198738098 
v 0.02567150816321373 -0.36725229024887085 0.3959258198738098 
v -0.005025195889174938 -0.34665319323539734 0.40646710991859436 
v -0.014314987696707249 -0.3506922423839569 0.40646710991859436 
v 0.00022555599571205676 -0.3720991313457489 0.4079139530658722 
v -0.021585259586572647 -0.3579624891281128 0.40646710991859436 
v -0.02562429942190647 -0.36725229024887085 0.40646710991859436 
v -0.02562429942190647 -0.3773498833179474 0.40646710991859436 
v -0.021585259586572647 -0.38663968443870544 0.40646710991859436 
v -0.014314987696707249 -0.3939099609851837 0.40646710991859436 
v -0.005025195889174938 -0.3979490101337433 0.40646710991859436 
v 0.0050724041648209095 -0.3979490101337433 0.40646710991859436 
v 0.014362196438014507 -0.3939099609851837 0.40646710991859436 
v 0.021632468327879906 -0.38663968443870544 0.40646710991859436 
v 0.02567150816321373 -0.3773498833179474 0.40646710991859436 
v 0.02567150816321373 -0.36725229024887085 0.40646710991859436 
v 0.021632468327879906 -0.3579624891281128 0.40646710991859436 
v 0.014362196438014507 -0.3506922423839569 0.40646710991859436 
v 0.0050724041648209095 -0.34665319323539734 0.40646710991859436 
vn -0.7462825775146484 0.14988698065280914 0.6485338807106018 
vn -0.6347304582595825 0.42014405131340027 0.6485338807106018 
vn -0.7440939545631409 0.14632529020309448 -0.651853621006012 
vn -0.6290948987007141 0.423469603061676 -0.651853621006012 
vn -0.423284113407135 0.6326407790184021 0.6485338807106018 
vn -0.42190223932266235 0.6301470994949341 -0.651853621006012 
vn -0.1461871713399887 0.7470161318778992 0.6485338807106018 
vn -0.14447250962257385 0.744455873966217 -0.651853621006012 
vn 0.1461871713399887 0.7470161318778992 0.6485338807106018 
vn 0.14817717671394348 0.7437273859977722 -0.651853621006012 
vn 0.423284113407135 0.6326407790184021 0.6485338807106018 
vn 0.41875967383384705 0.632239818572998 -0.651853621006012 
vn 0.6347304582595825 0.42014405131340027 0.6485338807106018 
vn 0.6311954259872437 0.42033228278160095 -0.651853621006012 
vn 0.7462825775146484 0.14988698065280914 0.6485338807106018 
vn 0.7433561682701111 0.15002812445163727 -0.651853621006012 
vn 0.7462825775146484 -0.14988698065280914 0.6485338807106018 
vn 0.7433561682701111 -0.15002812445163727 -0.651853621006012 
vn 0.6347304582595825 -0.42014405131340027 0.6485338807106018 
vn 0.6311954259872437 -0.42033228278160095 -0.651853621006012 
vn 0.423284113407135 -0.6326407790184021 0.6485338807106018 
vn 0.41875967383384705 -0.632239818572998 -0.651853621006012 
vn 0.1461871713399887 -0.7470161318778992 0.6485338807106018 
vn 0.14817717671394348 -0.7437273859977722 -0.651853621006012 
vn -0.1461871713399887 -0.7470161318778992 0.6485338807106018 
vn -0.14447250962257385 -0.744455873966217 -0.651853621006012 
vn -0.423284113407135 -0.6326407790184021 0.6485338807106018 
vn -0.42190223932266235 -0.6301470994949341 -0.651853621006012 
vn -0.6347304582595825 -0.42014405131340027 0.6485338807106018 
vn -0.6290948987007141 -0.423469603061676 -0.651853621006012 
vn -0.7462825775146484 -0.14988698065280914 0.6485338807106018 
vn -0.7440939545631409 -0.14632529020309448 -0.651853621006012 
vn -0.7462825775146484 0.14988698065280914 0.6485338807106018 
vn -0.7440939545631409 0.14632529020309448 -0.651853621006012 
vn 0.7433561682701111 -0.15002812445163727 -0.651853621006012 
vn 0.6311954259872437 -0.42033228278160095 -0.651853621006012 
vn -2.0682311115474694e-13 0 -1 
vn 0.41875967383384705 -0.632239818572998 -0.651853621006012 
vn 0.14817717671394348 -0.7437273859977722 -0.651853621006012 
vn -0.14447250962257385 -0.744455873966217 -0.651853621006012 
vn -0.42190223932266235 -0.6301470994949341 -0.651853621006012 
vn -0.6290948987007141 -0.423469603061676 -0.651853621006012 
vn -0.7440939545631409 -0.14632529020309448 -0.651853621006012 
vn -0.7440939545631409 0.14632529020309448 -0.651853621006012 
vn -0.6290948987007141 0.423469603061676 -0.651853621006012 
vn -0.42190223932266235 0.6301470994949341 -0.651853621006012 
vn -0.14447250962257385 0.744455873966217 -0.651853621006012 
vn 0.14817717671394348 0.7437273859977722 -0.651853621006012 
vn 0.41875967383384705 0.632239818572998 -0.651853621006012 
vn 0.6311954259872437 0.42033228278160095 -0.651853621006012 
vn 0.7433561682701111 0.15002812445163727 -0.651853621006012 
vn -0.1461871713399887 0.7470161318778992 0.6485338807106018 
vn -0.423284113407135 0.6326407790184021 0.6485338807106018 
vn 0 0 1 
vn -0.6347304582595825 0.42014405131340027 0.6485338807106018 
vn -0.7462825775146484 0.14988698065280914 0.6485338807106018 
vn -0.7462825775146484 -0.14988698065280914 0.6485338807106018 
vn -0.6347304582595825 -0.42014405131340027 0.6485338807106018 
vn -0.423284113407135 -0.6326407790184021 0.6485338807106018 
vn -0.1461871713399887 -0.7470161318778992 0.6485338807106018 
vn 0.1461871713399887 -0.7470161318778992 0.6485338807106018 
vn 0.423284113407135 -0.6326407790184021 0.6485338807106018 
vn 0.6347304582595825 -0.42014405131340027 0.6485338807106018 
vn 0.7462825775146484 -0.14988698065280914 0.6485338807106018 
vn 0.7462825775146484 0.14988698065280914 0.6485338807106018 
vn 0.6347304582595825 0.42014405131340027 0.6485338807106018 
vn 0.423284113407135 0.6326407790184021 0.6485338807106018 
vn 0.1461871713399887 0.7470161318778992 0.6485338807106018 
vt 0.4354879856109619 0.12153516709804535 
vt 0.4354879856109619 0.11410801112651825 
vt 0.4431464970111847 0.12153516709804535 
vt 0.4431464970111847 0.11410801112651825 
vt 0.4354879856109619 0.10668084770441055 
vt 0.4431464970111847 0.10668084770441055 
vt 0.4354879856109619 0.09925368428230286 
vt 0.4431464970111847 0.09925368428230286 
vt 0.4354879856109619 0.09182652831077576 
vt 0.4431464970111847 0.09182652831077576 
vt 0.4354879856109619 0.08439936488866806 
vt 0.4431464970111847 0.08439936488866806 
vt 0.4354879856109619 0.07702106982469559 
vt 0.4431464970111847 0.07702106982469559 
vt 0.4354879856109619 0.06959390640258789 
vt 0.4431464970111847 0.06959390640258789 
vt 0.4354879856109619 0.06216674670577049 
vt 0.4431464970111847 0.06216674670577049 
vt 0.4354879856109619 0.054739587008953094 
vt 0.4431464970111847 0.054739587008953094 
vt 0.4354879856109619 0.0473124235868454 
vt 0.4431464970111847 0.0473124235868454 
vt 0.4354879856109619 0.039885263890028 
vt 0.4431464970111847 0.039885263890028 
vt 0.4354879856109619 0.0324581041932106 
vt 0.4431464970111847 0.0324581041932106 
vt 0.4354879856109619 0.025030942633748055 
vt 0.4431464970111847 0.025030942633748055 
vt 0.4354879856109619 0.017603781074285507 
vt 0.4431464970111847 0.017603781074285507 
vt 0.4354879856109619 0.010176620446145535 
vt 0.4431464970111847 0.010176620446145535 
vt 0.4354879856109619 0.0027494600508362055 
vt 0.4431464970111847 0.0027494600508362055 
vt 0.9380518198013306 0.39487424492836 
vt 0.932774543762207 0.40015143156051636 
vt 0.92221999168396 0.38431984186172485 
vt 0.9258883595466614 0.40298548340797424 
vt 0.9184873104095459 0.40298548340797424 
vt 0.9116010665893555 0.40015143156051636 
vt 0.9063881635665894 0.39487424492836 
vt 0.9035564661026001 0.3880334198474884 
vt 0.9035564661026001 0.3806062638759613 
vt 0.9063881635665894 0.3737165927886963 
vt 0.9116010665893555 0.36848825216293335 
vt 0.9184873104095459 0.36565423011779785 
vt 0.9258883595466614 0.36565423011779785 
vt 0.932774543762207 0.36848825216293335 
vt 0.9380518198013306 0.3737165927886963 
vt 0.9408835172653198 0.3806062638759613 
vt 0.9408835172653198 0.3880334198474884 
vt 0.9281408190727234 0.30775168538093567 
vt 0.9333537817001343 0.30252334475517273 
vt 0.943972647190094 0.31835493445396423 
vt 0.9402399659156799 0.2996404469013214 
vt 0.9477053880691528 0.2996404469013214 
vt 0.9545271992683411 0.30252334475517273 
vt 0.9598044753074646 0.30775168538093567 
vt 0.9626361727714539 0.3146413564682007 
vt 0.9626361727714539 0.3220685124397278 
vt 0.9598044753074646 0.328909307718277 
vt 0.9545271992683411 0.33418652415275574 
vt 0.9477053880691528 0.33702054619789124 
vt 0.9402399659156799 0.33702054619789124 
vt 0.9333537817001343 0.33418652415275574 
vt 0.9281408190727234 0.328909307718277 
vt 0.9253091216087341 0.3220685124397278 
vt 0.9253091216087341 0.3146413564682007 
s on 
f 1/1/1 2/2/2 3/3/3 
f 2/2/2 4/4/4 3/3/3 
f 3/3/3 4/4/4 4/4/4 
f 4/4/4 2/2/2 4/4/4 
f 4/4/4 2/2/2 2/2/2 
f 2/2/2 5/5/5 2/2/2 
f 2/2/2 5/5/5 4/4/4 
f 5/5/5 6/6/6 4/4/4 
f 4/4/4 6/6/6 6/6/6 
f 6/6/6 5/5/5 6/6/6 
f 6/6/6 5/5/5 5/5/5 
f 5/5/5 7/7/7 5/5/5 
f 5/5/5 7/7/7 6/6/6 
f 7/7/7 8/8/8 6/6/6 
f 6/6/6 8/8/8 8/8/8 
f 8/8/8 7/7/7 8/8/8 
f 8/8/8 7/7/7 7/7/7 
f 7/7/7 9/9/9 7/7/7 
f 7/7/7 9/9/9 8/8/8 
f 9/9/9 10/10/10 8/8/8 
f 8/8/8 10/10/10 10/10/10 
f 10/10/10 9/9/9 10/10/10 
f 10/10/10 9/9/9 9/9/9 
f 9/9/9 11/11/11 9/9/9 
f 9/9/9 11/11/11 10/10/10 
f 11/11/11 12/12/12 10/10/10 
f 10/10/10 12/12/12 12/12/12 
f 12/12/12 11/11/11 12/12/12 
f 12/12/12 11/11/11 11/11/11 
f 11/11/11 13/13/13 11/11/11 
f 11/11/11 13/13/13 12/12/12 
f 13/13/13 14/14/14 12/12/12 
f 12/12/12 14/14/14 14/14/14 
f 14/14/14 13/13/13 14/14/14 
f 14/14/14 13/13/13 13/13/13 
f 13/13/13 15/15/15 13/13/13 
f 13/13/13 15/15/15 14/14/14 
f 15/15/15 16/16/16 14/14/14 
f 14/14/14 16/16/16 16/16/16 
f 16/16/16 15/15/15 16/16/16 
f 16/16/16 15/15/15 15/15/15 
f 15/15/15 17/17/17 15/15/15 
f 15/15/15 17/17/17 16/16/16 
f 17/17/17 18/18/18 16/16/16 
f 16/16/16 18/18/18 18/18/18 
f 18/18/18 17/17/17 18/18/18 
f 18/18/18 17/17/17 17/17/17 
f 17/17/17 19/19/19 17/17/17 
f 17/17/17 19/19/19 18/18/18 
f 19/19/19 20/20/20 18/18/18 
f 18/18/18 20/20/20 20/20/20 
f 20/20/20 19/19/19 20/20/20 
f 20/20/20 19/19/19 19/19/19 
f 19/19/19 21/21/21 19/19/19 
f 19/19/19 21/21/21 20/20/20 
f 21/21/21 22/22/22 20/20/20 
f 20/20/20 22/22/22 22/22/22 
f 22/22/22 21/21/21 22/22/22 
f 22/22/22 21/21/21 21/21/21 
f 21/21/21 23/23/23 21/21/21 
f 21/21/21 23/23/23 22/22/22 
f 23/23/23 24/24/24 22/22/22 
f 22/22/22 24/24/24 24/24/24 
f 24/24/24 23/23/23 24/24/24 
f 24/24/24 23/23/23 23/23/23 
f 23/23/23 25/25/25 23/23/23 
f 23/23/23 25/25/25 24/24/24 
f 25/25/25 26/26/26 24/24/24 
f 24/24/24 26/26/26 26/26/26 
f 26/26/26 25/25/25 26/26/26 
f 26/26/26 25/25/25 25/25/25 
f 25/25/25 27/27/27 25/25/25 
f 25/25/25 27/27/27 26/26/26 
f 27/27/27 28/28/28 26/26/26 
f 26/26/26 28/28/28 28/28/28 
f 28/28/28 27/27/27 28/28/28 
f 28/28/28 27/27/27 27/27/27 
f 27/27/27 29/29/29 27/27/27 
f 27/27/27 29/29/29 28/28/28 
f 29/29/29 30/30/30 28/28/28 
f 28/28/28 30/30/30 30/30/30 
f 30/30/30 29/29/29 30/30/30 
f 30/30/30 29/29/29 29/29/29 
f 29/29/29 31/31/31 29/29/29 
f 29/29/29 31/31/31 30/30/30 
f 31/31/31 32/32/32 30/30/30 
f 30/30/30 32/32/32 32/32/32 
f 32/32/32 31/31/31 32/32/32 
f 32/32/32 31/31/31 31/31/31 
f 31/31/31 33/33/33 31/31/31 
f 31/31/31 33/33/33 32/32/32 
f 33/33/33 34/34/34 32/32/32 
f 32/32/32 34/34/34 34/34/34 
f 34/34/34 35/35/35 34/34/34 
f 34/34/34 35/35/35 35/35/35 
f 35/35/35 36/36/36 35/35/35 
f 35/35/35 36/36/36 37/37/37 
f 36/36/36 38/38/38 37/37/37 
f 37/37/37 38/38/38 39/39/39 
f 38/38/38 39/39/39 39/39/39 
f 39/39/39 39/39/39 39/39/39 
f 39/39/39 40/40/40 39/39/39 
f 39/39/39 40/40/40 37/37/37 
f 40/40/40 41/41/41 37/37/37 
f 37/37/37 41/41/41 42/42/42 
f 41/41/41 42/42/42 42/42/42 
f 42/42/42 42/42/42 42/42/42 
f 42/42/42 43/43/43 42/42/42 
f 42/42/42 43/43/43 37/37/37 
f 43/43/43 44/44/44 37/37/37 
f 37/37/37 44/44/44 45/45/45 
f 44/44/44 45/45/45 45/45/45 
f 45/45/45 45/45/45 45/45/45 
f 45/45/45 46/46/46 45/45/45 
f 45/45/45 46/46/46 37/37/37 
f 46/46/46 47/47/47 37/37/37 
f 37/37/37 47/47/47 48/48/48 
f 47/47/47 48/48/48 48/48/48 
f 48/48/48 48/48/48 48/48/48 
f 48/48/48 49/49/49 48/48/48 
f 48/48/48 49/49/49 37/37/37 
f 49/49/49 50/50/50 37/37/37 
f 37/37/37 50/50/50 51/51/51 
f 50/50/50 51/51/51 51/51/51 
f 51/51/51 51/51/51 52/52/52 
f 51/51/51 52/52/52 52/52/52 
f 52/52/52 52/52/52 52/52/52 
f 52/52/52 53/53/53 52/52/52 
f 52/52/52 53/53/53 54/54/54 
f 53/53/53 55/55/55 54/54/54 
f 54/54/54 55/55/55 56/56/56 
f 55/55/55 56/56/56 56/56/56 
f 56/56/56 56/56/56 56/56/56 
f 56/56/56 57/57/57 56/56/56 
f 56/56/56 57/57/57 54/54/54 
f 57/57/57 58/58/58 54/54/54 
f 54/54/54 58/58/58 59/59/59 
f 58/58/58 59/59/59 59/59/59 
f 59/59/59 59/59/59 59/59/59 
f 59/59/59 60/60/60 59/59/59 
f 59/59/59 60/60/60 54/54/54 
f 60/60/60 61/61/61 54/54/54 
f 54/54/54 61/61/61 62/62/62 
f 61/61/61 62/62/62 62/62/62 
f 62/62/62 62/62/62 62/62/62 
f 62/62/62 63/63/63 62/62/62 
f 62/62/62 63/63/63 54/54/54 
f 63/63/63 64/64/64 54/54/54 
f 54/54/54 64/64/64 65/65/65 
f 64/64/64 65/65/65 65/65/65 
f 65/65/65 65/65/65 65/65/65 
f 65/65/65 66/66/66 65/65/65 
f 65/65/65 66/66/66 54/54/54 
f 66/66/66 67/67/67 54/54/54 
f 54/54/54 67/67/67 68/68/68 
f 52/52/52 54/54/54 68/68/68 
f 35/35/35 37/37/37 51/51/51 

