mtllib model_1.mtl
o model_1
v 0.013479536399245262 -0.4924658536911011 0.09895499795675278 
v 0.01764845661818981 -0.4937107264995575 0.09809798002243042 
v 0.010422327555716038 -0.4924658536911011 0.08895644545555115 
v 0.013201608322560787 -0.4937107264995575 0.08609971404075623 
v -0.0001389359968015924 -0.4924658536911011 0.08581404387950897 
v -0.0001389359968015924 -0.4937107264995575 0.08095759898424149 
v 0.01764845661818981 -0.4995201528072357 0.09809798002243042 
v 0.013201608322560787 -0.49910518527030945 0.08609971404075623 
v -0.0001389359968015924 -0.49972763657569885 0.08095759898424149 
v -0.0001389359968015924 -0.5011799931526184 0.09809798002243042 
v -0.017648400738835335 -0.4995201528072357 0.09809798002243042 
v -0.012923624366521835 -0.49972763657569885 0.11209595948457718 
v -0.017648400738835335 -0.4937107264995575 0.09809798002243042 
v -0.012923624366521835 -0.4937107264995575 0.11209595948457718 
v -0.01347947958856821 -0.4924658536911011 0.09895499795675278 
v -0.01042227167636156 -0.4924658536911011 0.10923922806978226 
v -0.0001389359968015924 -0.5001425743103027 0.11723807454109192 
v 0.012923680245876312 -0.49972763657569885 0.11209595948457718 
v 0.01764845661818981 -0.4937107264995575 0.09809798002243042 
v -0.0001389359968015924 -0.4937107264995575 0.11723807454109192 
v -0.0001389359968015924 -0.4924658536911011 0.08581404387950897 
v -0.0001389359968015924 -0.4748300313949585 0.08581404387950897 
v 0.010422327555716038 -0.4924658536911011 0.08895644545555115 
v 0.010422327555716038 -0.4748300313949585 0.08895644545555115 
v 0.013479536399245262 -0.4924658536911011 0.09895499795675278 
v 0.013479536399245262 -0.4748300313949585 0.09895499795675278 
v 0.010422327555716038 -0.4924658536911011 0.10923922806978226 
v 0.010422327555716038 -0.4748300313949585 0.10923922806978226 
v -0.0001389359968015924 -0.4924658536911011 0.11238162964582443 
v -0.0001389359968015924 -0.4748300313949585 0.11238162964582443 
v -0.01042227167636156 -0.4748300313949585 0.10923922806978226 
v -0.01042227167636156 -0.4924658536911011 0.10923922806978226 
v -0.01347947958856821 -0.4748300313949585 0.09895499795675278 
v -0.01347947958856821 -0.4924658536911011 0.09895499795675278 
v -0.01042227167636156 -0.4748300313949585 0.08895644545555115 
v -0.01042227167636156 -0.4924658536911011 0.08895644545555115 
v -0.0001389359968015924 -0.4748300313949585 0.08581404387950897 
v -0.0001389359968015924 -0.4924658536911011 0.08581404387950897 
v -0.0001389359968015924 -0.4924658536911011 0.11238162964582443 
v -0.0001389359968015924 -0.4937107264995575 0.11723807454109192 
v 0.010422327555716038 -0.4924658536911011 0.10923922806978226 
v 0.012923680245876312 -0.4937107264995575 0.11209595948457718 
v 0.013479536399245262 -0.4924658536911011 0.09895499795675278 
v -0.01347947958856821 -0.4924658536911011 0.09895499795675278 
v -0.01042227167636156 -0.4924658536911011 0.08895644545555115 
v -0.017648400738835335 -0.4937107264995575 0.09809798002243042 
v -0.01320155244320631 -0.4937107264995575 0.08609971404075623 
v -0.01320155244320631 -0.49910518527030945 0.08609971404075623 
v -0.0001389359968015924 -0.4937107264995575 0.08095759898424149 
v -0.0001389359968015924 -0.4924658536911011 0.08581404387950897 
v -0.0001389359968015924 -0.4924658536911011 0.11238162964582443 
vn 0.7582940459251404 0.651616096496582 0.01966099627315998 
vn 0.8437433242797852 0.536529004573822 -0.0152922747656703 
vn 0.4987506568431854 0.6980308890342712 -0.5138099193572998 
vn 0.597015917301178 0.5316267013549805 -0.6007870435714722 
vn 0.00378031050786376 0.6666266918182373 -0.7453821301460266 
vn -0.001891162944957614 0.5526116490364075 -0.8334367275238037 
vn 0.7869561910629272 -0.616540789604187 -0.024029340595006943 
vn 0.578855037689209 -0.5841969847679138 -0.5688942670822144 
vn 0.003779869293794036 -0.6232342720031738 -0.7820260524749756 
vn 3.0973070245729484e-13 -0.9998067021369934 -0.01966099627315998 
vn -0.7869561910629272 -0.616540789604187 -0.024029340595006943 
vn -0.5928946137428284 -0.5942285060882568 0.5434780716896057 
vn -0.8437433242797852 0.536529004573822 -0.0152922747656703 
vn -0.6209423542022705 0.5237663388252258 0.5831804275512695 
vn -0.7582940459251404 0.651616096496582 0.01966099627315998 
vn -0.5233968496322632 0.6908805966377258 0.4987381398677826 
vn 0.0018831990892067552 -0.6198199987411499 0.7847417593002319 
vn 0.5902179479598999 -0.5968871712684631 0.5434780716896057 
vn 0.8437433242797852 0.536529004573822 -0.0152922747656703 
vn -0.0018825720762833953 0.545307457447052 0.838234007358551 
vn 0.00378031050786376 0.6666266918182373 -0.7453821301460266 
vn -2.0682311115474694e-13 0 -1 
vn 0.4987506568431854 0.6980308890342712 -0.5138099193572998 
vn 0.7016792893409729 0 -0.7124928832054138 
vn 0.7582940459251404 0.651616096496582 0.01966099627315998 
vn 0.9999785423278809 0 0.006554040592163801 
vn 0.5233968496322632 0.6908805966377258 0.4987381398677826 
vn 0.7047857642173767 0 0.7094202041625977 
vn -6.994245135318045e-14 0.676350474357605 0.736579954624176 
vn 0 0 1 
vn -0.7047756910324097 0.0037719577085226774 0.7094202041625977 
vn -0.5233968496322632 0.6908805966377258 0.4987381398677826 
vn -0.9999785423278809 -2.0681866592583975e-13 0.006554040592163801 
vn -0.7582940459251404 0.651616096496582 0.01966099627315998 
vn -0.7016691565513611 0.0037810977082699537 -0.7124928832054138 
vn -0.4987506568431854 0.6980308890342712 -0.5138099193572998 
vn -2.0682311115474694e-13 0 -1 
vn 0.00378031050786376 0.6666266918182373 -0.7453821301460266 
vn -6.994245135318045e-14 0.676350474357605 0.736579954624176 
vn -0.0018825720762833953 0.545307457447052 0.838234007358551 
vn 0.5233968496322632 0.6908805966377258 0.4987381398677826 
vn 0.6233661770820618 0.5208792686462402 0.5831804275512695 
vn 0.7582940459251404 0.651616096496582 0.01966099627315998 
vn -0.7582940459251404 0.651616096496582 0.01966099627315998 
vn -0.4987506568431854 0.6980308890342712 -0.5138099193572998 
vn -0.8437433242797852 0.536529004573822 -0.0152922747656703 
vn -0.599520742893219 0.528800368309021 -0.6007870435714722 
vn -0.578855037689209 -0.5841969847679138 -0.5688942670822144 
vn -0.001891162944957614 0.5526116490364075 -0.8334367275238037 
vn 0.00378031050786376 0.6666266918182373 -0.7453821301460266 
vn -6.994245135318045e-14 0.676350474357605 0.736579954624176 
vt 0.9489661455154419 0.4268231987953186 
vt 0.9484492540359497 0.42309191823005676 
vt 0.9580122828483582 0.42599403858184814 
vt 0.9582061171531677 0.42288464307785034 
vt 0.9670583605766296 0.4272378087043762 
vt 0.968738317489624 0.42329922318458557 
vt 0.9489015340805054 0.4177022874355316 
vt 0.9582061171531677 0.4194124639034271 
vt 0.9684798717498779 0.417805939912796 
vt 0.9589168429374695 0.4081149697303772 
vt 0.968738317489624 0.39821669459342957 
vt 0.9583999514579773 0.39671382308006287 
vt 0.9691260457038879 0.39313799142837524 
vt 0.9587876200675964 0.39313799142837524 
vt 0.9671875834465027 0.38997676968574524 
vt 0.9592399597167969 0.3906504809856415 
vt 0.9487076997756958 0.39769846200942993 
vt 0.9475446343421936 0.40733760595321655 
vt 0.9437323808670044 0.4179614186286926 
vt 0.9487723112106323 0.392101526260376 
vt 0.4486530125141144 0.015552709810435772 
vt 0.4486530125141144 0.002752329921349883 
vt 0.4566006362438202 0.015552709810435772 
vt 0.4566006362438202 0.002752329921349883 
vt 0.4642898142337799 0.015552709810435772 
vt 0.4642898142337799 0.002752329921349883 
vt 0.4719789922237396 0.015552709810435772 
vt 0.4719789922237396 0.002752329921349883 
vt 0.47992661595344543 0.015552709810435772 
vt 0.47992661595344543 0.002752329921349883 
vt 0.48787423968315125 0.002752329921349883 
vt 0.48787423968315125 0.015552709810435772 
vt 0.49549880623817444 0.002752329921349883 
vt 0.49549880623817444 0.015552709810435772 
vt 0.5031879544258118 0.002752329921349883 
vt 0.5031879544258118 0.015552709810435772 
vt 0.5112002491950989 0.002752329921349883 
vt 0.5112002491950989 0.015552709810435772 
vt 0.9391447305679321 0.39982321858406067 
vt 0.9431508183479309 0.39764663577079773 
vt 0.9414708614349365 0.4080113172531128 
vt 0.9439908266067505 0.40764856338500977 
vt 0.9406308531761169 0.4159402847290039 
vt 0.977849006652832 0.3985276222229004 
vt 0.9768151640892029 0.40749308466911316 
vt 0.9741659760475159 0.39795759320259094 
vt 0.9737783074378967 0.40764856338500977 
vt 0.9702891111373901 0.40759673714637756 
vt 0.9739721417427063 0.41816869378089905 
vt 0.9779136180877686 0.41656216979026794 
vt 0.9510338306427002 0.3881629705429077 
s on 
f 1/1/1 2/2/2 3/3/3 
f 2/2/2 4/4/4 3/3/3 
f 3/3/3 4/4/4 5/5/5 
f 4/4/4 6/6/6 5/5/5 
f 5/5/5 6/6/6 6/6/6 
f 6/6/6 2/2/2 6/6/6 
f 6/6/6 2/2/2 2/2/2 
f 2/2/2 7/7/7 2/2/2 
f 2/2/2 7/7/7 4/4/4 
f 7/7/7 8/8/8 4/4/4 
f 4/4/4 8/8/8 6/6/6 
f 8/8/8 9/9/9 6/6/6 
f 6/6/6 9/9/9 9/9/9 
f 9/9/9 8/8/8 9/9/9 
f 9/9/9 8/8/8 8/8/8 
f 8/8/8 7/7/7 8/8/8 
f 8/8/8 7/7/7 9/9/9 
f 7/7/7 10/10/10 9/9/9 
f 9/9/9 10/10/10 11/11/11 
f 10/10/10 12/12/12 11/11/11 
f 11/11/11 12/12/12 13/13/13 
f 12/12/12 14/14/14 13/13/13 
f 13/13/13 14/14/14 15/15/15 
f 14/14/14 16/16/16 15/15/15 
f 15/15/15 16/16/16 16/16/16 
f 16/16/16 14/14/14 16/16/16 
f 16/16/16 14/14/14 14/14/14 
f 14/14/14 12/12/12 14/14/14 
f 14/14/14 12/12/12 17/17/17 
f 12/12/12 10/10/10 17/17/17 
f 17/17/17 10/10/10 18/18/18 
f 10/10/10 7/7/7 18/18/18 
f 18/18/18 7/7/7 19/19/19 
f 7/7/7 19/19/19 19/19/19 
f 19/19/19 19/19/19 17/17/17 
f 19/19/19 17/17/17 17/17/17 
f 17/17/17 17/17/17 17/17/17 
f 17/17/17 20/20/20 17/17/17 
f 17/17/17 20/20/20 14/14/14 
f 20/20/20 16/16/16 14/14/14 
f 14/14/14 16/16/16 16/16/16 
f 16/16/16 21/21/21 16/16/16 
f 16/16/16 21/21/21 21/21/21 
f 21/21/21 22/22/22 21/21/21 
f 21/21/21 22/22/22 23/23/23 
f 22/22/22 24/24/24 23/23/23 
f 23/23/23 24/24/24 25/25/25 
f 24/24/24 26/26/26 25/25/25 
f 25/25/25 26/26/26 27/27/27 
f 26/26/26 28/28/28 27/27/27 
f 27/27/27 28/28/28 29/29/29 
f 28/28/28 30/30/30 29/29/29 
f 29/29/29 30/30/30 31/31/31 
f 30/30/30 31/31/31 31/31/31 
f 31/31/31 31/31/31 29/29/29 
f 31/31/31 29/29/29 29/29/29 
f 29/29/29 29/29/29 29/29/29 
f 29/29/29 31/31/31 29/29/29 
f 29/29/29 31/31/31 32/32/32 
f 31/31/31 33/33/33 32/32/32 
f 32/32/32 33/33/33 34/34/34 
f 33/33/33 35/35/35 34/34/34 
f 34/34/34 35/35/35 36/36/36 
f 35/35/35 37/37/37 36/36/36 
f 36/36/36 37/37/37 38/38/38 
f 37/37/37 38/38/38 38/38/38 
f 38/38/38 38/38/38 39/39/39 
f 38/38/38 39/39/39 39/39/39 
f 39/39/39 39/39/39 39/39/39 
f 39/39/39 40/40/40 39/39/39 
f 39/39/39 40/40/40 41/41/41 
f 40/40/40 42/42/42 41/41/41 
f 41/41/41 42/42/42 43/43/43 
f 42/42/42 19/19/19 43/43/43 
f 43/43/43 19/19/19 19/19/19 
f 19/19/19 40/40/40 19/19/19 
f 19/19/19 40/40/40 40/40/40 
f 40/40/40 17/17/17 40/40/40 
f 40/40/40 17/17/17 42/42/42 
f 17/17/17 18/18/18 42/42/42 
f 42/42/42 18/18/18 19/19/19 
f 18/18/18 19/19/19 19/19/19 
f 19/19/19 19/19/19 44/44/44 
f 19/19/19 44/44/44 44/44/44 
f 44/44/44 44/44/44 44/44/44 
f 44/44/44 45/45/45 44/44/44 
f 44/44/44 45/45/45 46/46/46 
f 45/45/45 47/47/47 46/46/46 
f 46/46/46 47/47/47 11/11/11 
f 47/47/47 48/48/48 11/11/11 
f 11/11/11 48/48/48 9/9/9 
f 48/48/48 49/49/49 9/9/9 
f 9/9/9 49/49/49 49/49/49 
f 49/49/49 45/45/45 49/49/49 
f 49/49/49 45/45/45 45/45/45 
f 45/45/45 50/50/50 45/45/45 
f 45/45/45 50/50/50 47/47/47 
f 50/50/50 49/49/49 47/47/47 
f 47/47/47 49/49/49 48/48/48 
f 20/20/20 51/51/51 16/16/16 

