mtllib model_1.mtl
o model_1
v 2.821340799331665 14.474386215209961 9.255757331848145 
v 2.5505211353302 14.474386215209961 9.065170288085938 
v 2.2104506492614746 14.474386215209961 9.867222785949707 
v 2.2104506492614746 14.474386215209961 9.001642227172852 
v 1.8852195739746094 14.474386215209961 9.059612274169922 
v 1.5983237028121948 14.474386215209961 9.255757331848145 
v 1.3955180644989014 14.474386215209961 9.529726028442383 
v 1.3448165655136108 14.474386215209961 9.867222785949707 
v 1.4153039455413818 14.474386215209961 10.197572708129883 
v 1.5983237028121948 14.474386215209961 10.479482650756836 
v 1.8691434860229492 14.474386215209961 10.670068740844727 
v 2.2104506492614746 14.474386215209961 10.732804298400879 
v 2.53568172454834 14.474386215209961 10.675627708435059 
v 2.821340799331665 14.474386215209961 10.479482650756836 
v 3.011780261993408 14.474386215209961 10.208690643310547 
v 3.074847936630249 14.474386215209961 9.867222785949707 
v 3.017963409423828 14.474386215209961 9.54084300994873 
v 9.182514190673828 12.601906776428223 -5.463089942932129 
v 12.645050048828125 10.75207805633545 -5.461501598358154 
v 8.878305435180664 12.768013954162598 -5.241532802581787 
v 12.95173168182373 10.591161727905273 -5.239944934844971 
v 8.754643440246582 12.840685844421387 -4.706302165985107 
v 13.08157730102539 10.528400421142578 -4.704713821411133 
v 8.863466262817383 12.94119930267334 7.808093070983887 
v 13.142171859741211 10.652508735656738 7.607976913452148 
v 13.01727294921875 10.723764419555664 8.00026798248291 
v 8.943846702575684 12.902503967285156 8.140825271606445 
v 9.251765251159668 12.74111557006836 8.363176345825195 
v 12.627737045288086 10.921488761901855 8.364765167236328 
vn -1.0341130485562108e-13 0.999997615814209 -0.002184694167226553 
vn -1.0341130485562108e-13 0.999997615814209 -0.002184694167226553 
vn -1.0341130485562108e-13 0.999997615814209 -0.002184694167226553 
vn -1.0341130485562108e-13 0.999997615814209 -0.002184694167226553 
vn -1.0341130485562108e-13 0.999997615814209 -0.002184694167226553 
vn -1.0341130485562108e-13 0.999997615814209 -0.002184694167226553 
vn -1.0341130485562108e-13 0.999997615814209 -0.002184694167226553 
vn -1.0341130485562108e-13 0.999997615814209 -0.002184694167226553 
vn -1.0341130485562108e-13 0.999997615814209 -0.002184694167226553 
vn -1.0341130485562108e-13 0.999997615814209 0.002184694167226553 
vn -1.0341130485562108e-13 0.999997615814209 0.002184694167226553 
vn -1.0341130485562108e-13 0.999997615814209 0.002184694167226553 
vn -1.0341130485562108e-13 0.999997615814209 0.002184694167226553 
vn -1.0341130485562108e-13 0.999997615814209 0.002184694167226553 
vn -1.0341130485562108e-13 0.999997615814209 0.002184694167226553 
vn -1.0341130485562108e-13 0.999997615814209 -0.002184694167226553 
vn -1.0341130485562108e-13 0.999997615814209 -0.002184694167226553 
vn 0.47136861085891724 0.8818686604499817 -0.010923261754214764 
vn 0.47136861085891724 0.8818686604499817 -0.010923261754214764 
vn 0.47136861085891724 0.8818686604499817 -0.010923261754214764 
vn 0.47136861085891724 0.8818686604499817 -0.010923261754214764 
vn 0.47136861085891724 0.8818686604499817 -0.010923261754214764 
vn 0.47136861085891724 0.8818686604499817 -0.010923261754214764 
vn 0.47136861085891724 0.8818686604499817 -0.010923261754214764 
vn 0.47136861085891724 0.8818686604499817 -0.010923261754214764 
vn 0.4713866114616394 0.8819023370742798 -0.006554040592163801 
vn 0.4713866114616394 0.8819023370742798 -0.006554040592163801 
vn 0.47136861085891724 0.8818686604499817 0.010923261754214764 
vn 0.47136861085891724 0.8818686604499817 0.010923261754214764 
vt 0.01912013255059719 0.5539708137512207 
vt 0.014863020740449429 0.552343487739563 
vt 0.02134123258292675 0.5421727299690247 
vt 0.011531367897987366 0.5488854646682739 
vt 0.009680449962615967 0.5448171496391296 
vt 0.009680449962615967 0.5401385426521301 
vt 0.01125373039394617 0.5356634259223938 
vt 0.014677928760647774 0.5324087142944336 
vt 0.01893503963947296 0.5307813882827759 
vt 0.02346978895366192 0.5305780172348022 
vt 0.027726899832487106 0.53220534324646 
vt 0.031151099130511284 0.5354599952697754 
vt 0.033002015203237534 0.5397317409515381 
vt 0.033002015203237534 0.5444102883338928 
vt 0.031428735703229904 0.5486820340156555 
vt 0.028004538267850876 0.551936686038971 
vt 0.02393251843750477 0.5539708137512207 
vt 0.009680449962615967 0.8865560293197632 
vt 0.009680449962615967 0.9402578473091125 
vt 0.01273446436971426 0.8816739916801453 
vt 0.01273446436971426 0.9449363946914673 
vt 0.02004559151828289 0.8798432946205139 
vt 0.02004559151828289 0.946970522403717 
vt 0.1915331482887268 0.8804535269737244 
vt 0.1887567639350891 0.946970522403717 
vt 0.19412443041801453 0.9449363946914673 
vt 0.1960678994655609 0.8816739916801453 
vt 0.19912190735340118 0.8865560293197632 
vt 0.19912190735340118 0.9390373229980469 
s on 
f 1/1/1 2/2/2 3/3/3 
f 2/2/2 4/4/4 3/3/3 
f 3/3/3 4/4/4 3/3/3 
f 4/4/4 5/5/5 3/3/3 
f 3/3/3 5/5/5 3/3/3 
f 5/5/5 6/6/6 3/3/3 
f 3/3/3 6/6/6 3/3/3 
f 6/6/6 7/7/7 3/3/3 
f 3/3/3 7/7/7 3/3/3 
f 7/7/7 8/8/8 3/3/3 
f 3/3/3 8/8/8 3/3/3 
f 8/8/8 9/9/9 3/3/3 
f 3/3/3 9/9/9 3/3/3 
f 9/9/9 10/10/10 3/3/3 
f 3/3/3 10/10/10 3/3/3 
f 10/10/10 11/11/11 3/3/3 
f 3/3/3 11/11/11 3/3/3 
f 11/11/11 12/12/12 3/3/3 
f 3/3/3 12/12/12 3/3/3 
f 12/12/12 13/13/13 3/3/3 
f 3/3/3 13/13/13 3/3/3 
f 13/13/13 14/14/14 3/3/3 
f 3/3/3 14/14/14 3/3/3 
f 14/14/14 15/15/15 3/3/3 
f 3/3/3 15/15/15 3/3/3 
f 15/15/15 16/16/16 3/3/3 
f 3/3/3 16/16/16 3/3/3 
f 16/16/16 17/17/17 3/3/3 
f 3/3/3 17/17/17 1/1/1 
f 17/17/17 1/1/1 1/1/1 
f 1/1/1 1/1/1 18/18/18 
f 1/1/1 18/18/18 18/18/18 
f 18/18/18 18/18/18 19/19/19 
f 18/18/18 20/20/20 19/19/19 
f 19/19/19 20/20/20 21/21/21 
f 20/20/20 22/22/22 21/21/21 
f 21/21/21 22/22/22 23/23/23 
f 22/22/22 24/24/24 23/23/23 
f 23/23/23 24/24/24 25/25/25 
f 24/24/24 24/24/24 25/25/25 
f 25/25/25 24/24/24 26/26/26 
f 24/24/24 27/27/27 26/26/26 
f 26/26/26 27/27/27 26/26/26 
f 27/27/27 28/28/28 26/26/26 
f 26/26/26 28/28/28 29/29/29 

